<svg width="20" height="20" viewBox="0 0 20 20" fill="none" xmlns="http://www.w3.org/2000/svg">
<path d="M15.5626 19.0742C15.4005 19.0741 15.2408 19.0348 15.0973 18.9595L10.0001 16.2798L4.90296 18.9595C4.73778 19.0463 4.55161 19.0852 4.3655 19.0717C4.17938 19.0583 4.00074 18.993 3.84977 18.8833C3.6988 18.7737 3.58152 18.6239 3.51119 18.4511C3.44086 18.2783 3.42028 18.0892 3.45178 17.9053L4.42542 12.2295L0.301885 8.21049C0.168302 8.08021 0.0738231 7.91516 0.0291246 7.73399C-0.0155739 7.55283 -0.00870976 7.36277 0.0489412 7.18531C0.106592 7.00784 0.212732 6.85003 0.355365 6.72972C0.497998 6.60942 0.671438 6.5314 0.856085 6.50449L6.55482 5.67636L9.10312 0.512702C9.19523 0.356755 9.3264 0.227515 9.4837 0.137734C9.64099 0.0479526 9.81898 0.000732422 10.0001 0.000732422C10.1812 0.000732422 10.3592 0.0479526 10.5165 0.137734C10.6738 0.227515 10.805 0.356755 10.8971 0.512702L13.4454 5.67627L19.1441 6.5044C19.3288 6.53131 19.5022 6.60933 19.6449 6.72963C19.7875 6.84994 19.8936 7.00775 19.9513 7.18522C20.0089 7.36268 20.0158 7.55274 19.9711 7.7339C19.9264 7.91507 19.8319 8.08012 19.6983 8.2104L15.5748 12.2294L16.5484 17.9052C16.573 18.0487 16.566 18.1959 16.5278 18.3365C16.4896 18.477 16.4212 18.6075 16.3273 18.7189C16.2334 18.8302 16.1163 18.9197 15.9842 18.9811C15.8521 19.0424 15.7082 19.0742 15.5626 19.0742L15.5626 19.0742Z" fill="#F2C94C"/>
<path d="M19.9513 7.18505C19.8936 7.00762 19.7875 6.84986 19.6448 6.72958C19.5022 6.6093 19.3288 6.5313 19.1442 6.50439L13.4454 5.67626L10.8971 0.512689C10.8103 0.352155 10.6802 0.219126 10.5217 0.128645C10.3632 0.0381642 10.1825 -0.00615875 10.0001 0.000688744V16.2798L15.0973 18.9595C15.2625 19.0463 15.4486 19.0852 15.6348 19.0717C15.8209 19.0582 15.9995 18.993 16.1505 18.8833C16.3014 18.7736 16.4187 18.6239 16.4891 18.4511C16.5594 18.2782 16.58 18.0892 16.5485 17.9053L15.5748 12.2295L19.6984 8.21048C19.832 8.08015 19.9264 7.91506 19.9711 7.73385C20.0158 7.55265 20.009 7.36255 19.9513 7.18505Z" fill="#F2C94C"/>
</svg>
