<svg width="24" height="24" viewBox="0 0 24 24" fill="none" xmlns="http://www.w3.org/2000/svg">
<g clip-path="url(#clip0_8_533)">
<path fill-rule="evenodd" clip-rule="evenodd" d="M12 5.72727C8.53567 5.72727 5.72727 8.53567 5.72727 12C5.72727 15.4643 8.53567 18.2727 12 18.2727C15.4643 18.2727 18.2727 15.4643 18.2727 12C18.2727 8.53567 15.4643 5.72727 12 5.72727ZM4.09091 12C4.09091 7.63193 7.63193 4.09091 12 4.09091C16.3681 4.09091 19.9091 7.63193 19.9091 12C19.9091 16.3681 16.3681 19.9091 12 19.9091C7.63193 19.9091 4.09091 16.3681 4.09091 12Z" fill="#111111"/>
<path fill-rule="evenodd" clip-rule="evenodd" d="M12 0C12.6025 0 13.0909 0.488417 13.0909 1.09091V1.17818C13.0909 1.78067 12.6025 2.26909 12 2.26909C11.3975 2.26909 10.9091 1.78067 10.9091 1.17818V1.09091C10.9091 0.488417 11.3975 0 12 0ZM3.43952 3.43952C3.86555 3.01349 4.55627 3.01349 4.9823 3.43952L5.12412 3.58134C5.55014 4.00736 5.55014 4.69809 5.12412 5.12412C4.69809 5.55014 4.00736 5.55014 3.58134 5.12412L3.43952 4.9823C3.01349 4.55627 3.01349 3.86555 3.43952 3.43952ZM20.5605 3.43952C20.9865 3.86554 20.9865 4.55627 20.5605 4.9823L20.4187 5.12411C19.9926 5.55014 19.3019 5.55014 18.8759 5.12412C18.4499 4.69809 18.4499 4.00737 18.8759 3.58134L19.0177 3.43952C19.4437 3.01349 20.1345 3.01349 20.5605 3.43952ZM0 12C0 11.3975 0.488417 10.9091 1.09091 10.9091H1.17818C1.78067 10.9091 2.26909 11.3975 2.26909 12C2.26909 12.6025 1.78067 13.0909 1.17818 13.0909H1.09091C0.488417 13.0909 0 12.6025 0 12ZM21.7309 12C21.7309 11.3975 22.2193 10.9091 22.8218 10.9091H22.9091C23.5116 10.9091 24 11.3975 24 12C24 12.6025 23.5116 13.0909 22.9091 13.0909H22.8218C22.2193 13.0909 21.7309 12.6025 21.7309 12ZM5.12412 18.8759C5.55014 19.3019 5.55014 19.9926 5.12411 20.4187L4.9823 20.5605C4.55627 20.9865 3.86554 20.9865 3.43952 20.5605C3.01349 20.1345 3.01349 19.4437 3.43952 19.0177L3.58134 18.8759C4.00737 18.4499 4.69809 18.4499 5.12412 18.8759ZM18.8759 18.8759C19.3019 18.4499 19.9926 18.4499 20.4187 18.8759L20.5605 19.0177C20.9865 19.4437 20.9865 20.1345 20.5605 20.5605C20.1345 20.9865 19.4437 20.9865 19.0177 20.5605L18.8759 20.4187C18.4499 19.9926 18.4499 19.3019 18.8759 18.8759ZM12 21.7309C12.6025 21.7309 13.0909 22.2193 13.0909 22.8218V22.9091C13.0909 23.5116 12.6025 24 12 24C11.3975 24 10.9091 23.5116 10.9091 22.9091V22.8218C10.9091 22.2193 11.3975 21.7309 12 21.7309Z" fill="#111111"/>
</g>
<defs>
<clipPath id="clip0_8_533">
<rect width="24" height="24" fill="white"/>
</clipPath>
</defs>
</svg>
