<svg width="24" height="24" viewBox="0 0 24 24" fill="none" xmlns="http://www.w3.org/2000/svg">
<path d="M22.4967 20.979L18.4923 17.0039C20.0467 15.0644 20.7994 12.6025 20.5958 10.1246C20.3921 7.64667 19.2475 5.34101 17.3973 3.68171C15.5471 2.02241 13.132 1.13558 10.6485 1.20359C8.16504 1.2716 5.80199 2.28927 4.04525 4.04735C2.2885 5.80542 1.27161 8.17028 1.20365 10.6556C1.13569 13.141 2.02184 15.558 3.67989 17.4096C5.33793 19.2611 7.64184 20.4066 10.1179 20.6104C12.5939 20.8143 15.0539 20.0609 16.992 18.5054L20.964 22.4804C21.0644 22.5817 21.1838 22.662 21.3153 22.7169C21.4468 22.7717 21.5879 22.8 21.7304 22.8C21.8729 22.8 22.0139 22.7717 22.1455 22.7169C22.277 22.662 22.3964 22.5817 22.4967 22.4804C22.6913 22.279 22.8 22.0098 22.8 21.7297C22.8 21.4496 22.6913 21.1804 22.4967 20.979ZM10.9368 18.5054C9.44246 18.5054 7.98168 18.0619 6.73918 17.2311C5.49668 16.4002 4.52827 15.2193 3.95642 13.8377C3.38456 12.4561 3.23493 10.9357 3.52646 9.46901C3.818 8.00227 4.53759 6.65498 5.59424 5.59752C6.6509 4.54006 7.99716 3.81992 9.46279 3.52817C10.9284 3.23642 12.4476 3.38616 13.8282 3.95845C15.2088 4.53074 16.3888 5.49989 17.219 6.74333C18.0492 7.98677 18.4923 9.44866 18.4923 10.9441C18.4923 12.9495 17.6963 14.8727 16.2793 16.2907C14.8624 17.7088 12.9406 18.5054 10.9368 18.5054Z" fill="#111111"/>
</svg>
