<svg width="120" height="120" viewBox="0 0 120 120" fill="none" xmlns="http://www.w3.org/2000/svg">
<g opacity="0.7" clip-path="url(#clip0_8_871)">
<path d="M58.5933 104.531V109.219C58.5933 111.797 56.484 113.906 53.9061 113.906H7.03099C4.45287 113.906 2.34351 111.797 2.34351 109.219V34.2188C2.34351 31.6407 4.45287 29.5315 7.03099 29.5315H31.8749M17.1093 60.0002H29.5312M17.1093 69.3752H29.5312M17.1093 78.7501H29.5312M17.1093 88.1251H29.5312M17.1093 97.5001H29.5312M61.4063 15.4686V10.7811C61.4063 8.20276 63.5157 6.09363 66.0938 6.09363H112.969C115.547 6.09363 117.656 8.20276 117.656 10.7811V85.7809C117.656 88.359 115.547 90.4684 112.969 90.4684H90.4685M90.4685 36.5625H102.89M90.4685 45.9375H102.89M90.4685 55.3122H102.89M90.4685 64.6872H102.89M90.4685 74.0622H102.89M52.107 76.1926C53.1435 75.1561 54.374 74.3338 55.7282 73.7728C57.0825 73.2118 58.534 72.923 59.9998 72.923C61.4657 72.923 62.9172 73.2118 64.2714 73.7728C65.6257 74.3338 66.8562 75.1561 67.8926 76.1926M51.7967 55.526L44.7655 62.5572M44.7655 55.526L51.7967 62.5572M75.2341 55.526L68.2029 62.5572M68.2029 55.526L75.2341 62.5572M36.5624 17.8126H83.4375C86.0154 17.8126 88.1247 19.9217 88.1247 22.4998V97.4998C88.1247 100.078 86.0154 102.187 83.4375 102.187H36.5624C33.9843 102.187 31.8749 100.078 31.8749 97.4998V22.4998C31.8749 19.9217 33.9843 17.8126 36.5624 17.8126Z" stroke="white" stroke-width="4" stroke-miterlimit="2.613" stroke-linecap="round" stroke-linejoin="round"/>
</g>
<defs>
<clipPath id="clip0_8_871">
<rect width="120" height="120" fill="white"/>
</clipPath>
</defs>
</svg>
