<svg width="120" height="120" viewBox="0 0 120 120" fill="none" xmlns="http://www.w3.org/2000/svg">
<g opacity="0.7" clip-path="url(#clip0_8_689)">
<path d="M58.5933 104.531V109.219C58.5933 111.797 56.484 113.906 53.9061 113.906H7.03099C4.45287 113.906 2.34351 111.797 2.34351 109.219V34.2187C2.34351 31.6405 4.45287 29.5314 7.03099 29.5314H31.8749M17.1093 60.0001H29.5312M17.1093 69.375H29.5312M17.1093 78.75H29.5312M17.1093 88.125H29.5312M17.1093 97.5H29.5312M61.4063 15.4685V10.781C61.4063 8.20264 63.5157 6.09351 66.0938 6.09351H112.969C115.547 6.09351 117.656 8.20264 117.656 10.781V85.7808C117.656 88.3589 115.547 90.4683 112.969 90.4683H90.4685M90.4685 36.5624H102.89M90.4685 45.9374H102.89M90.4685 55.3121H102.89M90.4685 64.6871H102.89M90.4685 74.0621H102.89M52.107 76.1925C53.1435 75.1559 54.374 74.3337 55.7282 73.7727C57.0825 73.2117 58.534 72.9229 59.9998 72.9229C61.4657 72.9229 62.9172 73.2117 64.2714 73.7727C65.6257 74.3337 66.8562 75.1559 67.8926 76.1925M51.7967 55.5259L44.7655 62.5571M44.7655 55.5259L51.7967 62.5571M75.2341 55.5259L68.2029 62.5571M68.2029 55.5259L75.2341 62.5571M36.5624 17.8125H83.4375C86.0154 17.8125 88.1247 19.9216 88.1247 22.4997V97.4997C88.1247 100.078 86.0154 102.187 83.4375 102.187H36.5624C33.9843 102.187 31.8749 100.078 31.8749 97.4997V22.4997C31.8749 19.9216 33.9843 17.8125 36.5624 17.8125Z" stroke="#111111" stroke-width="4" stroke-miterlimit="2.613" stroke-linecap="round" stroke-linejoin="round"/>
</g>
<defs>
<clipPath id="clip0_8_689">
<rect width="120" height="120" fill="white"/>
</clipPath>
</defs>
</svg>
