<svg width="24" height="24" viewBox="0 0 24 24" fill="none" xmlns="http://www.w3.org/2000/svg">
<g clip-path="url(#clip0_4_106)">
<path fill-rule="evenodd" clip-rule="evenodd" d="M10.5279 0.720483C11.2052 1.35737 11.0491 2.32952 10.7265 3.07023L10.726 3.07149C10.2372 4.18882 9.96838 5.41381 9.97835 6.70952L9.97837 6.71241C9.99828 11.521 13.9953 15.6233 18.8902 15.8235L18.8908 15.8235C19.6136 15.8536 20.3044 15.8035 20.9753 15.6834C21.4157 15.6032 21.8443 15.5897 22.228 15.6792C22.6191 15.7704 23.0077 15.9825 23.2485 16.3765C23.4882 16.7688 23.5007 17.2096 23.4088 17.5963C23.3183 17.9772 23.1184 18.3534 22.8548 18.7106C20.5436 21.8726 16.6961 23.8748 12.402 23.6886L12.4015 23.6886C6.30766 23.4206 1.20824 18.5461 0.786402 12.5185C0.400999 7.17568 3.57177 2.52239 8.18082 0.578335C8.92058 0.264838 9.87575 0.1073 10.5279 0.720483ZM9.36923 1.93421C9.26033 1.93722 9.07738 1.97091 8.81718 2.08124L8.81572 2.08185C4.80806 3.77195 2.08205 7.80068 2.41431 12.4019L2.41444 12.4038C2.77646 17.5827 7.18639 21.8256 12.4732 22.0581C16.208 22.2199 19.5407 20.48 21.5383 17.7459L21.5408 17.7425C21.7002 17.5267 21.777 17.3643 21.8097 17.2597C21.7035 17.2439 21.527 17.2417 21.2665 17.2893L21.2639 17.2897C20.477 17.4307 19.6666 17.4893 18.8229 17.4541C13.0774 17.2188 8.37069 12.4218 8.34631 6.72058C8.33474 5.18816 8.65338 3.73729 9.23046 2.41799C9.32998 2.18934 9.36277 2.0299 9.36923 1.93421ZM9.45663 1.9409C9.4566 1.94094 9.4557 1.94069 9.45405 1.94005C9.45585 1.94053 9.45667 1.94086 9.45663 1.9409ZM21.83 17.1611C21.8299 17.1596 21.8299 17.1589 21.8299 17.1588C21.83 17.1588 21.83 17.1595 21.83 17.1611Z" fill="white"/>
</g>
<defs>
<clipPath id="clip0_4_106">
<rect width="24" height="24" fill="white"/>
</clipPath>
</defs>
</svg>
