<svg width="24" height="24" viewBox="0 0 24 24" fill="none" xmlns="http://www.w3.org/2000/svg">
<path d="M10.5031 11.9496L18.567 3.88571C18.9912 3.45891 19.2294 2.88156 19.2294 2.27976C19.2294 1.67796 18.9912 1.10061 18.567 0.673812C18.3552 0.460304 18.1033 0.290837 17.8257 0.175189C17.5481 0.0595409 17.2503 0 16.9496 0C16.6489 0 16.3512 0.0595409 16.0736 0.175189C15.796 0.290837 15.5441 0.460304 15.3323 0.673812L5.67381 10.3323C5.4603 10.5441 5.29084 10.796 5.17519 11.0736C5.05954 11.3512 5 11.6489 5 11.9496C5 12.2503 5.05954 12.5481 5.17519 12.8257C5.29084 13.1033 5.4603 13.3552 5.67381 13.567L15.3323 23.3394C15.5451 23.5505 15.7976 23.7175 16.0751 23.8309C16.3527 23.9442 16.6498 24.0017 16.9496 24C17.2494 24.0017 17.5466 23.9442 17.8242 23.8309C18.1017 23.7175 18.3541 23.5505 18.567 23.3394C18.9912 22.9126 19.2294 22.3352 19.2294 21.7334C19.2294 21.1316 18.9912 20.5543 18.567 20.1275L10.5031 11.9496Z" fill="#111111"/>
</svg>
