<svg fill="none" height="24" viewBox="0 0 24 24" width="24" xmlns="http://www.w3.org/2000/svg" xmlns:xlink="http://www.w3.org/1999/xlink"><clipPath id="a"><path d="m0 0h24v24h-24z"/></clipPath><g clip-path="url(#a)"><path clip-rule="evenodd" d="m10.5279.720483c.6773.636887.5212 1.609037.1986 2.349747l-.0005.00126c-.4888 1.11733-.75762 2.34232-.74765 3.63803l.00002.00289c.01991 4.80859 4.01693 8.91089 8.91183 9.11109h.0006c.7228.0301 1.4136-.02 2.0845-.1401.4404-.0802.869-.0937 1.2527-.0042.3911.0912.7797.3033 1.0205.6973.2397.3923.2522.8331.1603 1.2198-.0905.3809-.2904.7571-.554 1.1143-2.3112 3.162-6.1587 5.1642-10.4528 4.978h-.0005c-6.09384-.268-11.19326-5.1425-11.615098-11.1701-.385403-5.34282 2.785368-9.99611 7.394418-11.940165.73976-.313497 1.69492-.471035 2.34708.142148zm-1.15867 1.213727c-.1089.00301-.29185.0367-.55206.14703l-.00145.00061c-4.00766 1.6901-6.73367 5.71883-6.40141 10.32005l.00013.0019c.36202 5.1789 4.77195 9.4218 10.05876 9.6543 3.7348.1618 7.0675-1.5781 9.0651-4.3122l.0025-.0034c.1594-.2158.2362-.3782.2689-.4828-.1062-.0158-.2827-.018-.5432.0296l-.0026.0004c-.7869.141-1.5973.1996-2.441.1644-5.7455-.2353-10.45221-5.0323-10.47659-10.73352-.01157-1.53242.30707-2.98329.88415-4.30259.09952-.22865.13231-.38809.13877-.48378zm.0874.00669c-.00003.00004-.00093-.00021-.00258-.00085.0018.00048.00262.00081.00258.00085zm12.37337 15.2202c-.0001-.0015-.0001-.0022-.0001-.0023.0001 0 .0001.0007.0001.0023z" fill="#fff" fill-rule="evenodd"/></g></svg>